{"asset":{"version":"2.0","generator":"babylon.js glTF exporter for 3dsmax 2019 v20200813.4"},"scene":0,"scenes":[{"nodes":[0,10,11]}],"nodes":[{"children":[1],"translation":[-0.05480446,0.0,-0.00111404038],"rotation":[0.7119142,-0.02393538,0.021683231,0.7015235],"name":"global"},{"children":[2,7,8,9],"mesh":0,"translation":[0.00227965135,0.00116648572,-0.00101878738],"rotation":[2.77555756E-17,0.0,-5.551115E-17,1.0],"scale":[1.0,1.00000012,1.0],"name":"bottom"},{"children":[3],"mesh":1,"translation":[0.0,-0.008901003,-4.731119E-10],"rotation":[5.012812E-10,2.50640564E-10,0.7173561,0.6967067],"scale":[1.00000012,1.0,1.0],"name":"left"},{"children":[4,5,6],"translation":[0.000231211656,0.017814,-0.003747654],"rotation":[-5.937411E-10,-7.421764E-10,-0.8134155,0.5816831],"scale":[1.3483,1.3483001,1.3483001],"name":"cover controller"},{"mesh":2,"translation":[-4.05437931E-05,-0.00657913275,0.00277917529],"rotation":[3.13925552E-10,1.17722082E-10,9.197088E-13,1.0],"scale":[0.7416748,0.7416748,0.7416747],"name":"cover"},{"mesh":3,"translation":[-4.05437931E-05,-0.00657913275,0.00277917529],"rotation":[3.13925552E-10,1.17722082E-10,9.197088E-13,1.0],"scale":[0.7416748,0.7416748,0.7416747],"name":"front_cover"},{"mesh":4,"translation":[-0.0491022542,-0.0126621556,0.00283865561],"rotation":[6.215752E-08,6.72524E-08,0.6816388,0.7316889],"scale":[0.74167484,0.74167484,0.7416748],"name":"flap"},{"mesh":5,"translation":[0.06823989,-0.00892102,-3.784895E-10],"rotation":[2.506406E-10,-4.177343E-10,-0.7173561,0.6967067],"scale":[1.00000012,1.0,1.0],"name":"right"},{"mesh":6,"translation":[0.0359336,-0.008932379,0.0477767065],"rotation":[0.7173561,-9.13793763E-10,-5.221679E-10,0.6967067],"scale":[1.0,1.00000012,1.00000012],"name":"front"},{"mesh":7,"translation":[0.0329424553,-0.008997476,-0.04802558],"rotation":[-0.717356145,4.360102E-10,-6.05714756E-10,0.6967067],"scale":[1.0,0.99999994,1.0],"name":"back"},{"translation":[-0.0494994149,0.0,-0.006921497],"scale":[0.8659509,0.8659509,0.8659509],"name":"controller"},{"name":"Default light"}],"meshes":[{"primitives":[{"attributes":{"POSITION":1,"NORMAL":2,"TEXCOORD_0":3,"TEXCOORD_1":4},"indices":0,"material":0}],"name":"bottom"},{"primitives":[{"attributes":{"POSITION":6,"NORMAL":7,"TEXCOORD_0":8,"TEXCOORD_1":9},"indices":5,"material":0}],"name":"left"},{"primitives":[{"attributes":{"POSITION":11,"NORMAL":12,"TEXCOORD_0":13,"TEXCOORD_1":14},"indices":10,"material":0}],"name":"cover"},{"primitives":[{"attributes":{"POSITION":16,"NORMAL":17,"TEXCOORD_0":18,"TEXCOORD_1":19},"indices":15,"material":1}],"name":"front_cover"},{"primitives":[{"attributes":{"POSITION":21,"NORMAL":22,"TEXCOORD_0":23,"TEXCOORD_1":24},"indices":20,"material":0}],"name":"flap"},{"primitives":[{"attributes":{"POSITION":26,"NORMAL":27,"TEXCOORD_0":28,"TEXCOORD_1":29},"indices":25,"material":0}],"name":"right"},{"primitives":[{"attributes":{"POSITION":31,"NORMAL":32,"TEXCOORD_0":33,"TEXCOORD_1":34},"indices":30,"material":0}],"name":"front"},{"primitives":[{"attributes":{"POSITION":36,"NORMAL":37,"TEXCOORD_0":38,"TEXCOORD_1":39},"indices":35,"material":0}],"name":"back"}],"accessors":[{"bufferView":0,"componentType":5123,"count":36,"type":"SCALAR","name":"accessorIndices"},{"bufferView":1,"componentType":5126,"count":36,"max":[0.0683744252,-0.008849784,0.048092775],"min":[0.000227555458,-0.008951693,-0.04805985],"type":"VEC3","name":"accessorPositions"},{"bufferView":1,"byteOffset":432,"componentType":5126,"count":36,"type":"VEC3","name":"accessorNormals"},{"bufferView":2,"componentType":5126,"count":36,"type":"VEC2","name":"accessorUVs"},{"bufferView":2,"byteOffset":288,"componentType":5126,"count":36,"type":"VEC2","name":"accessorUV2s"},{"bufferView":0,"byteOffset":72,"componentType":5123,"count":12,"type":"SCALAR","name":"accessorIndices"},{"bufferView":1,"byteOffset":864,"componentType":5126,"count":12,"max":[0.0003275554,0.0176490285,0.04805985],"min":[0.000227555458,5.1217954E-05,-0.04805985],"type":"VEC3","name":"accessorPositions"},{"bufferView":1,"byteOffset":1008,"componentType":5126,"count":12,"type":"VEC3","name":"accessorNormals"},{"bufferView":2,"byteOffset":576,"componentType":5126,"count":12,"type":"VEC2","name":"accessorUVs"},{"bufferView":2,"byteOffset":672,"componentType":5126,"count":12,"type":"VEC2","name":"accessorUV2s"},{"bufferView":0,"byteOffset":96,"componentType":5123,"count":81,"type":"SCALAR","name":"accessorIndices"},{"bufferView":1,"byteOffset":1152,"componentType":5126,"count":81,"max":[7.21461547E-05,0.008951693,0.04805985],"min":[-0.0660501942,-0.008186179,-0.04805985],"type":"VEC3","name":"accessorPositions"},{"bufferView":1,"byteOffset":2124,"componentType":5126,"count":81,"type":"VEC3","name":"accessorNormals"},{"bufferView":2,"byteOffset":768,"componentType":5126,"count":81,"type":"VEC2","name":"accessorUVs"},{"bufferView":2,"byteOffset":1416,"componentType":5126,"count":81,"type":"VEC2","name":"accessorUV2s"},{"bufferView":0,"byteOffset":260,"componentType":5123,"count":9,"type":"SCALAR","name":"accessorIndices"},{"bufferView":1,"byteOffset":3096,"componentType":5126,"count":9,"max":[7.21461547E-05,0.008717329,0.04805985],"min":[-0.06594503,-0.008186179,-0.04805985],"type":"VEC3","name":"accessorPositions"},{"bufferView":1,"byteOffset":3204,"componentType":5126,"count":9,"type":"VEC3","name":"accessorNormals"},{"bufferView":2,"byteOffset":2064,"componentType":5126,"count":9,"type":"VEC2","name":"accessorUVs"},{"bufferView":2,"byteOffset":2136,"componentType":5126,"count":9,"type":"VEC2","name":"accessorUV2s"},{"bufferView":0,"byteOffset":280,"componentType":5123,"count":330,"type":"SCALAR","name":"accessorIndices"},{"bufferView":1,"byteOffset":3312,"componentType":5126,"count":330,"max":[0.000196578359,0.009181682,0.0212919284],"min":[-0.002224525,7.951231E-05,-0.0214523077],"type":"VEC3","name":"accessorPositions"},{"bufferView":1,"byteOffset":7272,"componentType":5126,"count":330,"type":"VEC3","name":"accessorNormals"},{"bufferView":2,"byteOffset":2208,"componentType":5126,"count":330,"type":"VEC2","name":"accessorUVs"},{"bufferView":2,"byteOffset":4848,"componentType":5126,"count":330,"type":"VEC2","name":"accessorUV2s"},{"bufferView":0,"byteOffset":940,"componentType":5123,"count":12,"type":"SCALAR","name":"accessorIndices"},{"bufferView":1,"byteOffset":11232,"componentType":5126,"count":12,"max":[0.000134536356,0.01733403,0.04805985],"min":[3.453641E-05,-3.06735456E-05,-0.04805985],"type":"VEC3","name":"accessorPositions"},{"bufferView":1,"byteOffset":11376,"componentType":5126,"count":12,"type":"VEC3","name":"accessorNormals"},{"bufferView":2,"byteOffset":7488,"componentType":5126,"count":12,"type":"VEC2","name":"accessorUVs"},{"bufferView":2,"byteOffset":7584,"componentType":5126,"count":12,"type":"VEC2","name":"accessorUV2s"},{"bufferView":0,"byteOffset":964,"componentType":5123,"count":12,"type":"SCALAR","name":"accessorIndices"},{"bufferView":1,"byteOffset":11520,"componentType":5126,"count":12,"max":[0.03244083,0.0173410345,0.000316075049],"min":[-0.03570604,-1.93143187E-05,0.0002160751],"type":"VEC3","name":"accessorPositions"},{"bufferView":1,"byteOffset":11664,"componentType":5126,"count":12,"type":"VEC3","name":"accessorNormals"},{"bufferView":2,"byteOffset":7680,"componentType":5126,"count":12,"type":"VEC2","name":"accessorUVs"},{"bufferView":2,"byteOffset":7776,"componentType":5126,"count":12,"type":"VEC2","name":"accessorUV2s"},{"bufferView":0,"byteOffset":988,"componentType":5123,"count":12,"type":"SCALAR","name":"accessorIndices"},{"bufferView":1,"byteOffset":11808,"componentType":5126,"count":12,"max":[0.0354319736,0.0174061283,3.27953567E-05],"min":[-0.0327148922,4.5781333E-05,-6.719854E-05],"type":"VEC3","name":"accessorPositions"},{"bufferView":1,"byteOffset":11952,"componentType":5126,"count":12,"type":"VEC3","name":"accessorNormals"},{"bufferView":2,"byteOffset":7872,"componentType":5126,"count":12,"type":"VEC2","name":"accessorUVs"},{"bufferView":2,"byteOffset":7968,"componentType":5126,"count":12,"type":"VEC2","name":"accessorUV2s"},{"bufferView":3,"componentType":5126,"count":6,"max":[3.33333325],"min":[0.0],"type":"SCALAR","name":"accessorAnimationInput"},{"bufferView":4,"componentType":5126,"count":6,"type":"VEC4","name":"accessorAnimationRotations"},{"bufferView":3,"byteOffset":24,"componentType":5126,"count":12,"max":[3.33333325],"min":[0.0],"type":"SCALAR","name":"accessorAnimationInput"},{"bufferView":4,"byteOffset":96,"componentType":5126,"count":12,"type":"VEC4","name":"accessorAnimationRotations"},{"bufferView":3,"byteOffset":72,"componentType":5126,"count":14,"max":[3.33333325],"min":[0.0],"type":"SCALAR","name":"accessorAnimationInput"},{"bufferView":4,"byteOffset":288,"componentType":5126,"count":14,"type":"VEC4","name":"accessorAnimationRotations"},{"bufferView":3,"byteOffset":128,"componentType":5126,"count":13,"max":[3.33333325],"min":[0.0],"type":"SCALAR","name":"accessorAnimationInput"},{"bufferView":4,"byteOffset":512,"componentType":5126,"count":13,"type":"VEC4","name":"accessorAnimationRotations"},{"bufferView":3,"byteOffset":180,"componentType":5126,"count":12,"max":[3.33333325],"min":[0.0],"type":"SCALAR","name":"accessorAnimationInput"},{"bufferView":4,"byteOffset":720,"componentType":5126,"count":12,"type":"VEC4","name":"accessorAnimationRotations"},{"bufferView":3,"byteOffset":228,"componentType":5126,"count":12,"max":[3.33333325],"min":[0.0],"type":"SCALAR","name":"accessorAnimationInput"},{"bufferView":4,"byteOffset":912,"componentType":5126,"count":12,"type":"VEC4","name":"accessorAnimationRotations"},{"bufferView":3,"byteOffset":276,"componentType":5126,"count":13,"max":[3.33333325],"min":[0.0],"type":"SCALAR","name":"accessorAnimationInput"},{"bufferView":4,"byteOffset":1104,"componentType":5126,"count":13,"type":"VEC4","name":"accessorAnimationRotations"}],"bufferViews":[{"buffer":0,"byteLength":1012,"name":"bufferViewScalar"},{"buffer":0,"byteOffset":1012,"byteLength":12096,"byteStride":12,"name":"bufferViewFloatVec3"},{"buffer":0,"byteOffset":13108,"byteLength":8064,"byteStride":8,"name":"bufferViewFloatVec2"},{"buffer":0,"byteOffset":21172,"byteLength":328,"name":"bufferViewAnimationFloatScalar"},{"buffer":0,"byteOffset":21500,"byteLength":1312,"name":"bufferViewAnimationFloatVec4"}],"buffers":[{"uri":"box_folding_animation.bin","byteLength":22812}],"materials":[{"pbrMetallicRoughness":{"baseColorFactor":[0.03529412,0.0431372561,0.054901965,1.0],"metallicFactor":0.0,"roughnessFactor":0.450053632},"name":"01 - Default"},{"pbrMetallicRoughness":{"baseColorTexture":{"index":0},"metallicFactor":0.0,"roughnessFactor":0.450053632},"name":"front_cover"}],"textures":[{"sampler":0,"source":0,"name":"front-cover-blue-UV.png"}],"images":[{"uri":"front-cover-blue-UV.png"}],"samplers":[{"magFilter":9729,"minFilter":9987}],"animations":[{"channels":[{"sampler":0,"target":{"node":0,"path":"rotation"}},{"sampler":1,"target":{"node":2,"path":"rotation"}},{"sampler":2,"target":{"node":3,"path":"rotation"}},{"sampler":3,"target":{"node":6,"path":"rotation"}},{"sampler":4,"target":{"node":7,"path":"rotation"}},{"sampler":5,"target":{"node":8,"path":"rotation"}},{"sampler":6,"target":{"node":9,"path":"rotation"}}],"samplers":[{"input":40,"output":41},{"input":42,"output":43},{"input":44,"output":45},{"input":46,"output":47},{"input":48,"output":49},{"input":50,"output":51},{"input":52,"output":53}],"name":"All Animations"}]}